<?xml version="1.0" encoding="utf-8"?>
<!-- Generator: Adobe Illustrator 28.0.0, SVG Export Plug-In . SVG Version: 6.00 Build 0)  -->
<svg version="1.1" id="Layer_1" xmlns="http://www.w3.org/2000/svg" xmlns:xlink="http://www.w3.org/1999/xlink" x="0px" y="0px"
	 viewBox="0 0 255.12 141.73" style="enable-background:new 0 0 255.12 141.73;" xml:space="preserve">
<style type="text/css">
	.st0{fill:url(#SVGID_1_);}
	.st1{fill:#E9EFC2;}
	.st2{fill:#006837;}
	.st3{clip-path:url(#SVGID_00000010301835811189297560000004185306492667151039_);}
	.st4{fill:#434F10;}
	.st5{fill-rule:evenodd;clip-rule:evenodd;fill:#006837;}
	.st6{fill:#000C38;}
	.st7{fill-rule:evenodd;clip-rule:evenodd;fill:#FFFFFF;}
	.st8{fill:#FFFFFF;}
	.st9{fill:url(#SVGID_00000181770022889607880000000004521973151748581823_);}
	.st10{fill:url(#SVGID_00000144318257939141933930000007657923719293727925_);}
	.st11{fill:url(#SVGID_00000036931544889562902220000004500723661672289675_);}
	.st12{fill:url(#SVGID_00000092414682798804163820000007660742601449362354_);}
	.st13{fill:url(#SVGID_00000098202999784580714960000011490088574833198473_);}
	.st14{fill:url(#SVGID_00000082333299420467221840000008439049641133263272_);}
	.st15{fill:url(#SVGID_00000180326930407859013910000000119549489943723702_);}
	.st16{fill:url(#SVGID_00000139263491255703765890000017060487400829412999_);}
	.st17{fill:url(#SVGID_00000098904368613960740300000017441027405961520036_);}
	.st18{fill:url(#SVGID_00000108309775667288572660000016692938360412233913_);}
	.st19{fill:url(#SVGID_00000047028064557585289870000001683660786031351729_);}
	.st20{fill:url(#SVGID_00000058591811287955693540000004832720229355882934_);}
	.st21{fill:url(#SVGID_00000092426632390513420210000017603963185672636328_);}
	.st22{fill:url(#SVGID_00000084529557176295460970000005344120324604803462_);}
	.st23{fill:url(#SVGID_00000060009687686631276140000001056765066395783555_);}
	.st24{fill:url(#SVGID_00000041982421468720627120000007371291507948227201_);}
	.st25{fill:url(#SVGID_00000173161926287236289710000016397821708907616906_);}
	.st26{fill:url(#SVGID_00000161608365012974009360000004655273777659738510_);}
	.st27{fill:url(#SVGID_00000164506065153014957030000004574268058191671443_);}
	.st28{fill:url(#SVGID_00000093887718721940051330000006668725658523238540_);}
	.st29{fill:url(#SVGID_00000054951326511739700910000004970181750546173327_);}
	.st30{fill:url(#SVGID_00000148653200728671855500000005688445008512441480_);}
	.st31{fill:url(#SVGID_00000109752064194827975920000007548466339513303743_);}
	.st32{fill:url(#SVGID_00000122709082360846930520000006210997425738555553_);}
	.st33{fill:url(#SVGID_00000052080287251175626470000004379328056687265198_);}
	.st34{fill:url(#SVGID_00000131352828230325793300000003844486656613714324_);}
	.st35{fill:url(#SVGID_00000157285846406597583760000007280032568019559081_);}
	.st36{fill:url(#SVGID_00000178162456485892235300000004885242914846493087_);}
	.st37{fill:url(#SVGID_00000169549812611619143640000012334324612973042858_);}
	.st38{fill:url(#SVGID_00000062151355353564033640000001105015873134015404_);}
	.st39{fill:url(#SVGID_00000001639935932557939280000011050820831281827212_);}
	.st40{fill:url(#SVGID_00000145749910766482982110000014477260691247564967_);}
	.st41{fill:url(#SVGID_00000109002218438827686840000007007029545459295144_);}
	.st42{fill:url(#SVGID_00000177441920558326897580000017250555219426129304_);}
	.st43{fill:url(#SVGID_00000163774829423205769750000006891966102022325888_);}
	.st44{fill:url(#SVGID_00000044179050418173786740000002766538057491779717_);}
	.st45{fill:url(#SVGID_00000093871139871564223330000001526297411311931275_);}
	.st46{fill:url(#SVGID_00000157298208994598423890000011032418826059608996_);}
	.st47{fill:url(#SVGID_00000131336285167005074890000009074783039562967949_);}
	.st48{fill:url(#SVGID_00000006691554364100740420000009225580020446173080_);}
	.st49{fill:url(#SVGID_00000151536742398427064810000016704577505835079829_);}
	.st50{fill:url(#SVGID_00000152243339900864636740000013554058631326296996_);}
	.st51{fill:url(#SVGID_00000074423708242926810080000005355213072550451390_);}
	.st52{fill:url(#SVGID_00000067214126280415224040000016390254712345655427_);}
	.st53{fill:url(#SVGID_00000081630642931738732760000010432385845509477042_);}
	.st54{fill:url(#SVGID_00000155109220123806310730000003594595812057186713_);}
	.st55{fill:url(#SVGID_00000013158627953174831170000001586878296661950336_);}
	.st56{fill:url(#SVGID_00000124135146199218563760000015419041247026631832_);}
	.st57{fill:url(#SVGID_00000158743778520406675680000010837098087502256008_);}
	.st58{fill:url(#SVGID_00000170279059512343041550000007156383078735168183_);}
	.st59{fill:url(#SVGID_00000023993742604716097170000015772139054554971579_);}
	.st60{fill:url(#SVGID_00000062892272213337255170000004795543600409711279_);}
	.st61{fill:url(#SVGID_00000176010540809537171270000000875642582902674050_);}
	.st62{fill:url(#SVGID_00000057143970159801267090000000508912696366006417_);}
	.st63{fill:url(#SVGID_00000027606471964064577360000017628427161207604664_);}
	.st64{fill:url(#SVGID_00000092416033996615594480000014430183847590089659_);}
	.st65{fill:url(#SVGID_00000063599509747416677080000008580380426142178733_);}
	.st66{fill:url(#SVGID_00000101068616208479488670000015619050480691091101_);}
	.st67{fill:#1A6E2E;}
	.st68{fill:#5AC381;}
	.st69{fill:#2B9241;}
	.st70{fill:#362133;}
	.st71{fill:#503D4C;}
	.st72{fill:#FBC31B;}
	.st73{fill:#FAA608;}
	.st74{fill:#A5B4E6;}
	.st75{fill:#B24D09;}
	.st76{fill:#D15907;}
	.st77{fill:#1A0018;}
	.st78{fill:#4582EB;}
	.st79{fill:#3864C1;}
	.st80{fill:#2552A8;}
	.st81{fill:#162F68;}
	.st82{fill:#655461;}
	.st83{fill:url(#SVGID_00000160885874373250420560000000069353884157596582_);}
	.st84{fill:url(#SVGID_00000021093506938428922140000017979182944121043589_);}
	.st85{fill:#607127;}
	.st86{fill-rule:evenodd;clip-rule:evenodd;fill:none;stroke:#FFFFFF;stroke-width:0.5;stroke-miterlimit:10;}
	.st87{fill:#FFAE00;}
	.st88{fill:#442828;}
	.st89{fill-rule:evenodd;clip-rule:evenodd;fill:none;stroke:#442828;stroke-width:0.5;stroke-miterlimit:10;}
	.st90{fill:#FF9626;}
	.st91{fill:#1D1D1B;}
	.st92{fill:#26421F;}
	.st93{fill:#1B1464;}
	.st94{font-family:'Avenir-Black';}
	.st95{font-size:10px;}
	.st96{font-size:5px;}
</style>
<rect x="48.19" y="-65.2" transform="matrix(-1.836970e-16 1 -1 -1.836970e-16 198.4251 -56.6928)" class="st1" width="158.74" height="272.13"/>
<g>
	<rect x="-8.5" y="124.74" class="st2" width="89.28" height="0.96"/>
</g>
<g>
	<rect x="174.34" y="125.11" class="st2" width="89.28" height="0.96"/>
</g>
<g>
	<g>
		<text transform="matrix(1 0 0 1 91.5895 96.0994)" class="st93 st94 st95">company name</text>
	</g>
	<g>
		<text transform="matrix(1 0 0 1 112.0736 102.3576)" class="st93 st94 st96">tagline here</text>
	</g>
	<g>
		<g>
			<g>
				<path class="st2" d="M132.69,59.55c-2.06,3.99-7.08,2.29-5.35,10.34C131.9,69.62,134.04,63.46,132.69,59.55z"/>
				<path class="st2" d="M127.25,61.46c3.36-0.2,4.94-4.74,3.95-7.63C129.68,56.78,125.97,55.52,127.25,61.46z"/>
				<path class="st2" d="M127.15,54.4c2.11-0.13,3.11-2.98,2.48-4.8C128.68,51.45,126.35,50.66,127.15,54.4z"/>
				<path class="st2" d="M120.38,59.55c-1.35,3.91,0.8,10.07,5.35,10.34C127.46,61.84,122.44,63.54,120.38,59.55z"/>
				<path class="st2" d="M121.87,53.83c-0.99,2.89,0.59,7.43,3.95,7.63C127.1,55.52,123.39,56.78,121.87,53.83z"/>
				<path class="st2" d="M125.92,54.4c0.8-3.74-1.53-2.95-2.48-4.8C122.81,51.42,123.8,54.27,125.92,54.4z"/>
				<path class="st2" d="M127.01,37.42c0-0.18-0.15-0.33-0.33-0.33s-0.33,0.15-0.33,0.33V49.6c0,0.18,0.15,0.33,0.33,0.33
					s0.33-0.15,0.33-0.33V37.42z"/>
				<path class="st2" d="M129.24,48.66c0.18,0,0.33-0.15,0.33-0.33v-9.64c0-0.18-0.15-0.33-0.33-0.33s-0.33,0.15-0.33,0.33v9.64
					C128.91,48.51,129.06,48.66,129.24,48.66z"/>
				<path class="st2" d="M124.12,48.66c0.18,0,0.33-0.15,0.33-0.33v-9.64c0-0.18-0.15-0.33-0.33-0.33s-0.33,0.15-0.33,0.33v9.64
					C123.79,48.51,123.94,48.66,124.12,48.66z"/>
			</g>
			<g>
				<path class="st2" d="M126.49,80.93c-2.21-8.05-9.59-13.97-18.32-13.97v1.27c9.37,0,17.06,7.3,17.69,16.51
					c-0.03,0.4-0.04,0.81-0.04,1.22h0.08h1.19h0.08c0-0.41-0.01-0.82-0.04-1.22c0.63-9.21,8.32-16.51,17.69-16.51v-1.27
					C136.08,66.96,128.7,72.89,126.49,80.93z"/>
				<path class="st2" d="M130.03,85.96h1.27c0-7.45,6.06-13.52,13.52-13.52v-1.27C136.67,71.17,130.03,77.81,130.03,85.96z"/>
				<path class="st2" d="M135.33,85.96h1.27c0-4.53,3.69-8.22,8.22-8.22v-1.27C139.59,76.47,135.33,80.73,135.33,85.96z"/>
				<path class="st2" d="M108.17,71.17v1.27c7.45,0,13.52,6.06,13.52,13.52h1.27C122.95,77.81,116.32,71.17,108.17,71.17z"/>
				<path class="st2" d="M108.17,76.47v1.27c4.53,0,8.22,3.69,8.22,8.22h1.27C117.66,80.73,113.4,76.47,108.17,76.47z"/>
			</g>
		</g>
	</g>
</g>
</svg>
