<?xml version="1.0" encoding="utf-8"?>
<!-- Generator: Adobe Illustrator 28.0.0, SVG Export Plug-In . SVG Version: 6.00 Build 0)  -->
<svg version="1.1" id="Layer_1" xmlns="http://www.w3.org/2000/svg" xmlns:xlink="http://www.w3.org/1999/xlink" x="0px" y="0px"
	 viewBox="0 0 255.12 141.73" style="enable-background:new 0 0 255.12 141.73;" xml:space="preserve">
<style type="text/css">
	.st0{fill:url(#SVGID_1_);}
	.st1{fill:#E9EFC2;}
	.st2{fill:#006837;}
	.st3{clip-path:url(#SVGID_00000034066404643579380740000008229000504029436844_);}
	.st4{fill:#434F10;}
	.st5{fill-rule:evenodd;clip-rule:evenodd;fill:#006837;}
	.st6{fill:#1B1464;}
	.st7{font-family:'Avenir-Roman';}
	.st8{font-size:6px;}
	.st9{font-family:'Avenir-Black';}
	.st10{font-size:8px;}
	.st11{font-family:'Avenir-Medium';}
	.st12{fill:#000C38;}
	.st13{fill-rule:evenodd;clip-rule:evenodd;fill:#FFFFFF;}
	.st14{fill:#FFFFFF;}
	.st15{fill:url(#SVGID_00000026850636099676605430000002730620004498609331_);}
	.st16{fill:url(#SVGID_00000079471767796493240820000002295703284559928473_);}
	.st17{fill:url(#SVGID_00000029003271652294570950000009904309177036826504_);}
	.st18{fill:url(#SVGID_00000121280949960892263020000005367865130922942142_);}
	.st19{fill:url(#SVGID_00000124135633610970756060000018407667745255949967_);}
	.st20{fill:url(#SVGID_00000137094730050505009670000002780662052531732892_);}
	.st21{fill:url(#SVGID_00000065789591665218916020000010310340604979030460_);}
	.st22{fill:url(#SVGID_00000107582148677517643800000008075101778155065736_);}
	.st23{fill:url(#SVGID_00000019649650083829903600000015627700518163378304_);}
	.st24{fill:url(#SVGID_00000017501588042978251580000009098198023653886367_);}
	.st25{fill:url(#SVGID_00000012466280584970962500000000153183163148539317_);}
	.st26{fill:url(#SVGID_00000060008950123780669720000016904468315625810310_);}
	.st27{fill:url(#SVGID_00000081619475650438103780000018016755327447096738_);}
	.st28{fill:url(#SVGID_00000106132249908296242490000010194899205052160440_);}
	.st29{fill:url(#SVGID_00000160154253853655637090000014233132183437520055_);}
	.st30{fill:url(#SVGID_00000024721669653978959390000006216545820296156852_);}
	.st31{fill:url(#SVGID_00000087407422378940631510000003513979806145928867_);}
	.st32{fill:url(#SVGID_00000096773891901828423510000000540287983619855765_);}
	.st33{fill:url(#SVGID_00000073001089402688154510000003881057721079988638_);}
	.st34{fill:url(#SVGID_00000139281622647704195660000008076865101591878591_);}
	.st35{fill:url(#SVGID_00000016793999475305186460000012433032311927394192_);}
	.st36{fill:url(#SVGID_00000019661788693389179380000008089357021370998451_);}
	.st37{fill:url(#SVGID_00000087393131783116766740000001040633375892401326_);}
	.st38{fill:url(#SVGID_00000047756088968591564840000013093121514510292131_);}
	.st39{fill:url(#SVGID_00000156574090360167181330000016921817223254512535_);}
	.st40{fill:url(#SVGID_00000012474933780693839800000000488681356981734815_);}
	.st41{fill:url(#SVGID_00000129196704804710025640000010965822809894764449_);}
	.st42{fill:url(#SVGID_00000072978879789078832640000002669232951751442344_);}
	.st43{fill:url(#SVGID_00000126282754266992015240000001561445406526844861_);}
	.st44{fill:url(#SVGID_00000013165757468378822800000004373825353057957567_);}
	.st45{fill:url(#SVGID_00000060028507602997016660000013843643900172730025_);}
	.st46{fill:url(#SVGID_00000008130915223425691850000004361760454795981953_);}
	.st47{fill:url(#SVGID_00000135679495594627723290000012433509660413684403_);}
	.st48{fill:url(#SVGID_00000164504513169778544400000004969473028230612362_);}
	.st49{fill:url(#SVGID_00000042016634025271131330000010749976533691631029_);}
	.st50{fill:url(#SVGID_00000171680102880265103310000016239717472292890300_);}
	.st51{fill:url(#SVGID_00000054225947254532762670000000579324673557622188_);}
	.st52{fill:url(#SVGID_00000062170634188312904590000011637355995920870036_);}
	.st53{fill:url(#SVGID_00000101818210123710122590000013998009277580103358_);}
	.st54{fill:url(#SVGID_00000052807598910134711800000002049230896260024239_);}
	.st55{fill:url(#SVGID_00000086685256125126837920000018424297244644363440_);}
	.st56{fill:url(#SVGID_00000084511348140494049530000003732499498159177406_);}
	.st57{fill:url(#SVGID_00000155135240145257609850000015237075354380818870_);}
	.st58{fill:url(#SVGID_00000086677033185516066710000006563861144805945492_);}
	.st59{fill:url(#SVGID_00000030450377377128789540000010101474329221393811_);}
	.st60{fill:url(#SVGID_00000103978516821140469120000010902899440750768294_);}
	.st61{fill:url(#SVGID_00000158002304474814231950000007736496872609491094_);}
	.st62{fill:url(#SVGID_00000075163519828236684820000003420778278136362906_);}
	.st63{fill:url(#SVGID_00000077307284708995957030000008268160470647589287_);}
	.st64{fill:url(#SVGID_00000083769464564681018410000006621484340089356418_);}
	.st65{fill:url(#SVGID_00000110444486387274555710000005803370831920229307_);}
	.st66{fill:url(#SVGID_00000106143594068268072780000015033160423690992277_);}
	.st67{fill:url(#SVGID_00000007404601966127010340000005261410458626942617_);}
	.st68{fill:url(#SVGID_00000173143678408143837650000004467664016483894686_);}
	.st69{fill:url(#SVGID_00000130627978875825834700000006532055651767479946_);}
	.st70{fill:url(#SVGID_00000163756094711835878350000001144821080914655664_);}
	.st71{fill:url(#SVGID_00000179630003541966960760000018057552221934447499_);}
	.st72{fill:url(#SVGID_00000158732811191001306840000005325632654137283475_);}
	.st73{fill:#1A6E2E;}
	.st74{fill:#5AC381;}
	.st75{fill:#2B9241;}
	.st76{fill:#362133;}
	.st77{fill:#503D4C;}
	.st78{fill:#FBC31B;}
	.st79{fill:#FAA608;}
	.st80{fill:#A5B4E6;}
	.st81{fill:#B24D09;}
	.st82{fill:#D15907;}
	.st83{fill:#1A0018;}
	.st84{fill:#4582EB;}
	.st85{fill:#3864C1;}
	.st86{fill:#2552A8;}
	.st87{fill:#162F68;}
	.st88{fill:#655461;}
	.st89{fill:url(#SVGID_00000036234854074973685860000002317404440481246641_);}
	.st90{fill:url(#SVGID_00000051349616595458590970000000279308888809364621_);}
	.st91{fill:#607127;}
	.st92{fill-rule:evenodd;clip-rule:evenodd;fill:none;stroke:#FFFFFF;stroke-width:0.5;stroke-miterlimit:10;}
	.st93{fill:#FFAE00;}
	.st94{fill:#442828;}
	.st95{fill-rule:evenodd;clip-rule:evenodd;fill:none;stroke:#442828;stroke-width:0.5;stroke-miterlimit:10;}
	.st96{fill:#FF9626;}
	.st97{fill:#1D1D1B;}
	.st98{fill:#26421F;}
	.st99{font-size:10px;}
	.st100{font-size:5px;}
</style>
<linearGradient id="SVGID_1_" gradientUnits="userSpaceOnUse" x1="-8.504" y1="70.8661" x2="263.6219" y2="70.8661">
	<stop  offset="0" style="stop-color:#FFFCF6"/>
	<stop  offset="0.1632" style="stop-color:#FFFFFF"/>
	<stop  offset="0.9889" style="stop-color:#E1E1E0"/>
</linearGradient>
<polygon class="st0" points="-8.5,150.24 -8.5,-8.5 263.62,-8.5 263.62,150.24 "/>
<path class="st5" d="M18.94,124.66c-0.99-0.99-2.37-1.58-3.86-1.58s-2.84,0.59-3.83,1.58c-0.99,0.99-1.6,2.34-1.6,3.86
	c0,1.49,0.62,2.84,1.6,3.83c0.99,0.99,2.34,1.6,3.83,1.6s2.87-0.62,3.86-1.6c0.99-0.99,1.58-2.34,1.58-3.83
	C20.51,127,19.92,125.65,18.94,124.66L18.94,124.66z M15.08,124.1c2.45,0,4.42,1.97,4.42,4.42c0,2.42-1.97,4.42-4.42,4.42
	s-4.42-2-4.42-4.42C10.66,126.07,12.63,124.1,15.08,124.1L15.08,124.1z M17.61,126.75l-1.66,1.3c-0.28,0.25-0.56,0.37-0.82,0.39
	c-0.28,0-0.53-0.08-0.82-0.34l-1.62-1.35C12.73,126.72,17.55,126.72,17.61,126.75z M18.01,126.97c0,0.03,0,0.03,0,0.06v2.96
	c0,0.17-0.11,0.28-0.25,0.28h-5.32c-0.17,0-0.28-0.11-0.28-0.28v-2.96V127l1.3,1.07l0.7,0.56l0,0c0.34,0.28,0.65,0.39,0.96,0.39
	c0.31-0.03,0.62-0.17,0.96-0.45l0,0l0.68-0.54L18.01,126.97z"/>
<path class="st5" d="M16.57,79.42c-0.2,1.35-1.32,3.1-1.6,3.86c-0.11,0.25-0.39,0.28-0.48,0.03c-0.31-0.76-1.44-2.53-1.63-3.89
	c-0.17-1.27,0.82-2.17,1.83-2.14C15.7,77.28,16.74,78.18,16.57,79.42L16.57,79.42z M14.71,78.21c0.56,0,1.01,0.45,1.01,0.99
	c0,0.56-0.45,1.01-1.01,1.01c-0.56,0-1.01-0.45-1.01-1.01C13.7,78.66,14.15,78.21,14.71,78.21L14.71,78.21z M18.54,76.52
	c-0.99-0.99-2.34-1.58-3.83-1.58s-2.87,0.59-3.86,1.58c-0.96,0.99-1.58,2.34-1.58,3.86c0,1.49,0.62,2.84,1.58,3.83
	c0.99,0.99,2.37,1.6,3.86,1.6s2.84-0.62,3.83-1.6c0.99-0.99,1.6-2.34,1.6-3.83C20.15,78.86,19.53,77.51,18.54,76.52L18.54,76.52z
	 M14.71,75.96c2.45,0,4.42,1.97,4.42,4.42c0,2.42-1.97,4.42-4.42,4.42s-4.42-2-4.42-4.42C10.29,77.93,12.26,75.96,14.71,75.96
	L14.71,75.96z"/>
<path class="st5" d="M18.57,108.99c-0.99-0.99-2.37-1.6-3.86-1.6c-1.49,0-2.84,0.62-3.83,1.6c-0.99,0.99-1.6,2.34-1.6,3.83
	c0,1.49,0.62,2.87,1.6,3.86c0.99,0.99,2.34,1.58,3.83,1.58c1.49,0,2.87-0.59,3.86-1.58c0.99-0.99,1.58-2.37,1.58-3.86
	C20.15,111.33,19.56,109.98,18.57,108.99L18.57,108.99z M14.71,108.4c2.45,0,4.42,1.97,4.42,4.42c0,2.45-1.97,4.42-4.42,4.42
	c-2.45,0-4.42-1.97-4.42-4.42C10.29,110.37,12.26,108.4,14.71,108.4L14.71,108.4z M12.12,111.11c0.17-0.34,0.37-0.68,0.68-0.96
	c0.14,0.14,0.28,0.28,0.39,0.45c0.23,0.28,0.37,0.62,0.42,1.04l-0.06,0.06c-0.28,0.2-0.11,0.73,0.54,1.6
	c0.65,0.87,1.1,1.21,1.38,1.01l0.08-0.06c0.37,0.2,0.68,0.42,0.87,0.7c0.11,0.17,0.23,0.37,0.28,0.59
	c-0.34,0.17-0.73,0.28-1.13,0.31c-0.39-0.25-0.76-0.56-1.13-0.9c-0.34-0.37-0.68-0.73-0.99-1.18c-0.34-0.42-0.59-0.87-0.82-1.32
	C12.43,112.01,12.26,111.56,12.12,111.11L12.12,111.11z M12.91,110.04l0.14-0.08c0.17-0.14,0.34-0.2,0.45-0.17
	c0.11,0.03,0.25,0.14,0.39,0.37c0.42,0.56,0.42,0.99,0,1.3l-0.11,0.08c-0.06-0.37-0.2-0.73-0.42-1.04
	C13.22,110.32,13.08,110.18,12.91,110.04L12.91,110.04z M15.7,114.15l0.11-0.08c0.23-0.17,0.45-0.23,0.65-0.14
	c0.2,0.06,0.42,0.23,0.62,0.51c0.17,0.23,0.23,0.39,0.23,0.51c-0.03,0.14-0.14,0.28-0.34,0.42l-0.11,0.08
	c-0.08-0.25-0.17-0.45-0.28-0.59C16.35,114.54,16.06,114.32,15.7,114.15L15.7,114.15z"/>
<rect x="-8.5" y="35.35" class="st1" width="48.98" height="24.04"/>
<g>
	<g>
		<g>
			<g>
				<g>
					<path class="st2" d="M24.49,55.82c-2.31,0-4.46-0.91-6.07-2.57c-1.54-1.58-2.38-3.67-2.38-5.88c0-4.66,3.79-8.45,8.45-8.45
						s8.45,3.79,8.45,8.45c0,2.21-0.85,4.3-2.38,5.88C28.96,54.9,26.8,55.82,24.49,55.82z M24.49,39.42c-4.38,0-7.94,3.56-7.94,7.94
						c0,2.08,0.79,4.04,2.24,5.53c1.51,1.56,3.54,2.41,5.7,2.41c2.17,0,4.2-0.86,5.7-2.41c1.44-1.49,2.24-3.45,2.24-5.53
						C32.44,42.99,28.87,39.42,24.49,39.42z"/>
				</g>
			</g>
		</g>
		<g>
			<path class="st2" d="M26.37,48.63C26.37,48.63,26.37,48.63,26.37,48.63c1.32-0.68,2.24-2.06,2.24-3.66
				c0-2.27-1.84-4.11-4.11-4.11s-4.11,1.84-4.11,4.11c0,1.6,0.91,2.98,2.24,3.66c0,0,0,0,0,0c-2.01,0.66-3.56,2.35-4.01,4.45
				c1.49,1.54,3.58,2.49,5.89,2.49s4.4-0.95,5.89-2.49C29.93,50.97,28.39,49.28,26.37,48.63z"/>
		</g>
	</g>
</g>
<g>
	<polygon class="st2" points="263.62,123.97 167.11,123.97 136.83,96.58 -8.5,96.58 -8.5,95.62 137.2,95.62 167.48,123.01 
		263.62,123.01 	"/>
</g>
<g>
	<text transform="matrix(1 0 0 1 25.6767 81.9794)" class="st6 st7 st8">your address</text>
</g>
<g>
	<text transform="matrix(1 0 0 1 25.6767 130.1219)" class="st6 st7 st8">your email</text>
</g>
<g>
	<path class="st2" d="M86.7,123.09c-2.8,0-5.08,2.28-5.08,5.08c0,2.8,2.28,5.08,5.08,5.08s5.08-2.28,5.08-5.08
		C91.78,125.37,89.5,123.09,86.7,123.09z M88.99,129.45c0.05-0.41,0.07-0.83,0.07-1.28c0-0.44-0.02-0.87-0.07-1.28
		c1.26,0.31,1.98,0.85,1.98,1.28S90.25,129.13,88.99,129.45z M86.7,132.43c-0.43,0-0.96-0.72-1.28-1.98
		c0.41,0.05,0.83,0.07,1.28,0.07c0.44,0,0.87-0.02,1.28-0.07C87.67,131.71,87.13,132.43,86.7,132.43z M86.7,129.7
		c-0.52,0-1-0.04-1.44-0.1c-0.06-0.44-0.1-0.92-0.1-1.44c0-0.52,0.04-1,0.1-1.44c0.44-0.06,0.92-0.1,1.44-0.1
		c0.52,0,1,0.04,1.44,0.1c0.06,0.44,0.1,0.92,0.1,1.44c0,0.52-0.04,1-0.1,1.44C87.7,129.67,87.22,129.7,86.7,129.7z M82.44,128.17
		c0-0.43,0.72-0.96,1.98-1.28c-0.05,0.41-0.07,0.83-0.07,1.28c0,0.44,0.02,0.87,0.07,1.28C83.16,129.13,82.44,128.6,82.44,128.17z
		 M86.7,123.91c0.43,0,0.96,0.72,1.28,1.98c-0.41-0.05-0.83-0.07-1.28-0.07c-0.44,0-0.87,0.02-1.28,0.07
		C85.74,124.63,86.28,123.91,86.7,123.91z M90.69,126.68c-0.49-0.28-1.11-0.51-1.84-0.66c-0.15-0.73-0.38-1.36-0.66-1.84
		C89.35,124.61,90.26,125.53,90.69,126.68z M85.21,124.18c-0.28,0.49-0.51,1.11-0.66,1.84c-0.73,0.15-1.36,0.38-1.84,0.66
		C83.14,125.53,84.06,124.61,85.21,124.18z M82.71,129.66c0.49,0.28,1.11,0.51,1.84,0.66c0.15,0.73,0.38,1.36,0.66,1.84
		C84.06,131.73,83.14,130.81,82.71,129.66z M88.19,132.16c0.28-0.49,0.51-1.11,0.66-1.84c0.73-0.15,1.36-0.38,1.84-0.66
		C90.26,130.81,89.35,131.73,88.19,132.16z"/>
	<g>
		<text transform="matrix(1 0 0 1 95.869 130.1219)" class="st6 st7 st8">your website</text>
	</g>
</g>
<g>
	<text transform="matrix(1 0 0 1 25.6767 114.4246)" class="st6 st7 st8">+91 00000000</text>
</g>
<g>
	<text transform="matrix(1 0 0 1 50.369 46.2583)" class="st6 st9 st10">ARvind kumar</text>
</g>
<g>
	<text transform="matrix(1 0 0 1 56.2665 53.3926)" class="st6 st11 st8">Project Manager</text>
</g>
<g>
	<g>
		<text transform="matrix(1 0 0 1 163.8047 94.3598)" class="st6 st9 st99">company name</text>
	</g>
	<g>
		<text transform="matrix(1 0 0 1 184.2888 100.618)" class="st6 st9 st100">tagline here</text>
	</g>
	<g>
		<g>
			<g>
				<path class="st2" d="M204.91,57.81c-2.06,3.99-7.08,2.29-5.35,10.34C204.11,67.88,206.26,61.72,204.91,57.81z"/>
				<path class="st2" d="M199.47,59.72c3.36-0.2,4.94-4.74,3.95-7.63C201.89,55.04,198.19,53.78,199.47,59.72z"/>
				<path class="st2" d="M199.37,52.66c2.11-0.13,3.11-2.98,2.48-4.8C200.9,49.71,198.57,48.92,199.37,52.66z"/>
				<path class="st2" d="M192.59,57.81c-1.35,3.91,0.8,10.07,5.35,10.34C199.67,60.1,194.65,61.8,192.59,57.81z"/>
				<path class="st2" d="M194.09,52.09c-0.99,2.89,0.59,7.43,3.95,7.63C199.31,53.78,195.61,55.04,194.09,52.09z"/>
				<path class="st2" d="M198.13,52.66c0.8-3.74-1.53-2.95-2.48-4.8C195.02,49.68,196.02,52.53,198.13,52.66z"/>
				<path class="st2" d="M199.23,35.68c0-0.18-0.15-0.33-0.33-0.33c-0.18,0-0.33,0.15-0.33,0.33v12.18c0,0.18,0.15,0.33,0.33,0.33
					c0.18,0,0.33-0.15,0.33-0.33V35.68z"/>
				<path class="st2" d="M201.46,46.92c0.18,0,0.33-0.15,0.33-0.33v-9.64c0-0.18-0.15-0.33-0.33-0.33s-0.33,0.15-0.33,0.33v9.64
					C201.12,46.77,201.27,46.92,201.46,46.92z"/>
				<path class="st2" d="M196.34,46.92c0.18,0,0.33-0.15,0.33-0.33v-9.64c0-0.18-0.15-0.33-0.33-0.33c-0.18,0-0.33,0.15-0.33,0.33
					v9.64C196,46.77,196.15,46.92,196.34,46.92z"/>
			</g>
			<g>
				<path class="st2" d="M198.71,79.19c-2.21-8.05-9.59-13.97-18.32-13.97v1.27c9.37,0,17.06,7.3,17.69,16.51
					c-0.03,0.4-0.04,0.81-0.04,1.22h0.08h1.19h0.08c0-0.41-0.01-0.82-0.04-1.22c0.63-9.21,8.32-16.51,17.69-16.51v-1.27
					C208.3,65.22,200.92,71.15,198.71,79.19z"/>
				<path class="st2" d="M202.25,84.22h1.27c0-7.45,6.06-13.52,13.52-13.52v-1.27C208.88,69.43,202.25,76.07,202.25,84.22z"/>
				<path class="st2" d="M207.54,84.22h1.27c0-4.53,3.69-8.22,8.22-8.22v-1.27C211.8,74.73,207.54,78.99,207.54,84.22z"/>
				<path class="st2" d="M180.38,69.43v1.27c7.45,0,13.52,6.06,13.52,13.52h1.27C195.17,76.07,188.54,69.43,180.38,69.43z"/>
				<path class="st2" d="M180.38,74.73V76c4.53,0,8.22,3.69,8.22,8.22h1.27C189.87,78.99,185.62,74.73,180.38,74.73z"/>
			</g>
		</g>
	</g>
</g>
</svg>
